<svg width="137" height="43" viewBox="0 0 137 43" fill="none" xmlns="http://www.w3.org/2000/svg">
<path d="M129.047 32.8125V33.9844H134.203V32.8125H135.117V36.6328H132.07V37.8281H136.359V38.5664H126.867V37.8281H131.168V36.6328H128.133V32.8125H129.047ZM129.047 35.9062H134.203V34.7109H129.047V35.9062ZM132.07 39.5508C132.07 40.9102 133.734 41.9297 135.633 42.1875L135.281 42.9023C133.682 42.6387 132.234 41.9121 131.613 40.793C130.986 41.9121 129.539 42.6387 127.957 42.9023L127.605 42.1875C129.48 41.9297 131.145 40.9102 131.145 39.5508V39.2578H132.07V39.5508Z" fill="white"/>
<path d="M119.578 34.7109C119.578 35.9062 120.398 37.1133 121.723 37.6406L121.277 38.3438C120.264 37.9395 119.537 37.1484 119.168 36.1992C118.805 37.2422 118.078 38.1211 117.047 38.5781L116.578 37.8867C117.902 37.3125 118.699 36.0117 118.711 34.7109V34.6875H116.789V33.9492H118.711V32.707H119.578V33.9492H121.465V34.6875H119.578V34.7109ZM125.344 32.543V39.5859H124.465V35.9766H123.105V38.6836H122.215V32.7305H123.105V35.2031H124.465V32.543H125.344ZM122.32 39.4102C122.32 40.7812 124.078 41.9062 125.883 42.1875L125.555 42.9023C123.973 42.6387 122.496 41.8359 121.863 40.6641C121.23 41.8359 119.748 42.6387 118.184 42.9023L117.844 42.1875C119.66 41.9062 121.395 40.7812 121.406 39.4102V39.1523H122.32V39.4102Z" fill="white"/>
<path d="M112.125 33.5156V42H111.07V33.5156H112.125Z" fill="white"/>
<path d="M103.699 42H102.598L105.703 33.5156H106.816L109.922 42H108.809L107.965 39.6094H104.555L103.699 42ZM104.871 38.6836H107.637L106.289 34.8867H106.219L104.871 38.6836Z" fill="white"/>
<path d="M97.5703 32.4961V35.0273H99.1523V35.7891H97.5703V38.2617H96.6562V32.4961H97.5703ZM97.5703 38.8008V41.1094H91.8516V42.1289H97.957V42.832H90.9492V40.4297H96.6562V39.4922H90.9258V38.8008H97.5703ZM95.6602 33.4805V34.2188H89.4492V33.4805H92.0977V32.4258H93.0117V33.4805H95.6602ZM92.5547 34.6875C94.0664 34.6875 95.0508 35.3438 95.0625 36.3984C95.0508 37.4531 94.0664 38.1094 92.5547 38.1094C91.0312 38.1094 90.0352 37.4531 90.0469 36.3984C90.0352 35.3438 91.0312 34.6875 92.5547 34.6875ZM92.5547 35.3672C91.5703 35.3672 90.9141 35.7773 90.9258 36.3984C90.9141 37.0312 91.5703 37.418 92.5547 37.418C93.5391 37.418 94.1836 37.0312 94.1953 36.3984C94.1836 35.7773 93.5391 35.3672 92.5547 35.3672Z" fill="white"/>
<path d="M87.6914 32.5312V37.8633H86.7656V36.7734H83.9883V36.0469H86.7656V34.793H84.1406C83.4844 36.4395 81.8672 37.5469 79.5586 38.0977L79.2305 37.3359C81.7852 36.7441 83.2734 35.4961 83.4492 33.8203H79.7578V33.0586H84.457C84.457 33.4043 84.4219 33.7383 84.3633 34.0547H86.7656V32.5312H87.6914ZM87.6914 38.332V40.875H81.8789V42.0938H88.043V42.8555H80.9648V40.1719H86.7656V39.082H80.9414V38.332H87.6914Z" fill="white"/>
<path d="M77.3203 32.543V40.2422H76.3945V37.4297H73.6992C73.2188 38.0449 72.4453 38.4141 71.5547 38.4141C69.9961 38.4141 68.8477 37.3359 68.8477 35.8125C68.8477 34.2891 69.9961 33.2109 71.5547 33.1992C72.4395 33.2051 73.1953 33.5684 73.6875 34.1719H76.3945V32.543H77.3203ZM77.6133 41.9531V42.7266H70.6289V39.4336H71.5547V41.9531H77.6133ZM71.5547 34.0195C70.4883 34.0312 69.7266 34.7695 69.7266 35.8125C69.7266 36.8555 70.4883 37.5938 71.5547 37.5938C72.5742 37.5938 73.3594 36.8555 73.3594 35.8125C73.3594 34.7695 72.5742 34.0312 71.5547 34.0195ZM74.1094 34.9336C74.1973 35.2031 74.25 35.4961 74.25 35.8125C74.25 36.1172 74.1973 36.4043 74.1094 36.668H76.3945V34.9336H74.1094Z" fill="white"/>
<path d="M60.0469 32.7188C62.3672 32.7188 63.7266 33.3516 63.7266 34.5117C63.7266 35.6953 62.3672 36.3281 60.0469 36.3398C57.7266 36.3281 56.3555 35.6953 56.3555 34.5117C56.3555 33.3516 57.7266 32.7188 60.0469 32.7188ZM60.0469 33.4102C58.3125 33.4102 57.3047 33.832 57.3164 34.5117C57.3047 35.2383 58.3125 35.6367 60.0469 35.6367C61.7695 35.6367 62.7891 35.2383 62.7891 34.5117C62.7891 33.832 61.7695 33.4102 60.0469 33.4102ZM64.793 37.043V37.793H55.3008V37.043H64.793ZM63.5742 38.6953V41.0273H57.3867V42.1055H63.8906V42.832H56.4727V40.3477H62.6719V39.3984H56.4492V38.6953H63.5742Z" fill="white"/>
<path d="M53.5312 32.543V40.1836H52.6172V32.543H53.5312ZM53.8594 41.9531V42.7266H46.8047V39.4805H47.7188V41.9531H53.8594ZM48.6211 34.1719C48.6094 35.7539 49.6992 37.1836 51.2461 37.7461L50.7656 38.4844C49.5586 38.0215 48.6211 37.084 48.1641 35.8828C47.7012 37.1602 46.752 38.1855 45.5391 38.6719L45.0352 37.957C46.6172 37.3477 47.6836 35.8125 47.6836 34.1719V33.1289H48.6211V34.1719Z" fill="white"/>
<path d="M42.7148 32.5312V35.25H44.2734V36.0234H42.7148V38.7539H41.7891V32.5312H42.7148ZM39.3633 38.9531C41.4844 38.9531 42.7969 39.6914 42.7969 40.9336C42.7969 42.1992 41.4844 42.9258 39.3633 42.9258C37.2305 42.9258 35.9062 42.1992 35.9062 40.9336C35.9062 39.6914 37.2305 38.9531 39.3633 38.9531ZM39.3633 39.7148C37.793 39.7031 36.8086 40.1719 36.8086 40.9336C36.8086 41.707 37.793 42.1875 39.3633 42.1875C40.9219 42.1875 41.9062 41.707 41.9062 40.9336C41.9062 40.1719 40.9219 39.7031 39.3633 39.7148ZM39.668 33.3281V34.0898H35.9414V37.1484C38.0508 37.1367 39.2695 37.0723 40.6641 36.7852L40.7578 37.5469C39.3047 37.8398 38.0508 37.8984 35.8477 37.8984H35.0391V33.3281H39.668Z" fill="white"/>
<path d="M26.9531 33.6914V34.2305C26.9414 35.0508 26.9414 36.4336 26.6484 38.3672L25.7227 38.2852C26.0039 36.5391 26.0273 35.2734 26.0273 34.4414H21.6562V33.6914H26.9531ZM24.2227 36.668V39.832C25.377 39.791 26.5605 39.7148 27.6445 39.5859L27.6914 40.2773C25.5 40.6172 23.0508 40.6641 21.1875 40.6523L21.0703 39.8906C21.7559 39.8848 22.5176 39.8789 23.3203 39.8555V36.668H24.2227ZM29.2148 32.5312V36.8906H30.9023V37.6875H29.2148V42.9492H28.3008V32.5312H29.2148Z" fill="white"/>
<path d="M19.6523 32.543V38.6836H18.7734V35.9297H17.3555V38.6133H16.4766V32.7422H17.3555V35.168H18.7734V32.543H19.6523ZM19.6523 39.1641V42.9492H18.75V39.9141H12.6211V39.1641H19.6523ZM15.375 33.3047C15.375 35.7891 13.9688 37.6758 11.3203 38.8008L10.8633 38.1094C13.0254 37.2246 14.25 35.8184 14.4258 34.0664H11.2852V33.3047H15.375Z" fill="white"/>
<path d="M8.78906 33.5859V34.6289C8.77734 35.9062 8.77734 37.3359 8.40234 39.4336L7.46484 39.3281C7.86328 37.3359 7.86328 35.8711 7.86328 34.6289V34.3477H1.44141V33.5859H8.78906ZM9.92578 40.7109V41.4727H0.433594V40.7109H4.16016V36.9844H5.0625V40.7109H9.92578Z" fill="white"/>
<path fill-rule="evenodd" clip-rule="evenodd" d="M26.746 17.9948H15.0732L20.7328 8.62598L26.746 17.9948Z" fill="url(#paint0_linear_485_1569)"/>
<path fill-rule="evenodd" clip-rule="evenodd" d="M24.7664 14.8891C32.5483 9.21959 24.8796 -2.65795 16.5742 2.13275L24.7664 14.8891Z" fill="url(#paint1_linear_485_1569)"/>
<path d="M8.23964 18.7453C11.6857 18.7453 14.4793 15.9468 14.4793 12.4947C14.4793 9.04263 11.6857 6.24414 8.23964 6.24414C4.79358 6.24414 2 9.04263 2 12.4947C2 15.9468 4.79358 18.7453 8.23964 18.7453Z" fill="url(#paint2_linear_485_1569)"/>
<path fill-rule="evenodd" clip-rule="evenodd" d="M8.39528 6.25844V12.4523L2 12.509L2.08489 1.01417L14.1114 1L14.0831 6.30096L8.39528 6.25844Z" fill="url(#paint3_linear_485_1569)"/>
<path d="M88.9141 18V1.03125H100.305V3.9375H92.4297V8.0625H99.7188V10.9688H92.4297V15.0938H100.328V18H88.9141Z" fill="white"/>
<path d="M86.0547 1.03125V18H82.5391V1.03125H86.0547Z" fill="white"/>
<path d="M51.3906 18V1.03125H62.7812V3.9375H54.9062V8.0625H62.1953V10.9688H54.9062V15.0938H62.8047V18H51.3906Z" fill="white"/>
<path d="M45.0859 6.49219C44.6172 4.89844 43.3281 3.91406 41.4766 3.91406C38.8516 3.91406 37.0703 5.92969 37.0703 9.49219C37.0703 13.0781 38.8047 15.1172 41.5 15.1172C43.9258 15.1172 45.3672 13.7461 45.4141 11.6016H41.7344V8.95312H48.8125V11.0625C48.8125 15.5156 45.7656 18.2344 41.4766 18.2344C36.7188 18.2344 33.4844 14.9062 33.4844 9.53906C33.4844 4.03125 36.9297 0.796875 41.4062 0.796875C45.2266 0.796875 48.1797 3.14062 48.6484 6.49219H45.0859Z" fill="white"/>
<path d="M70.0005 1C70.0005 1 70.0013 9.2959 73.0005 9.2959C75.9997 9.2959 75.9998 12 75.9998 12L77 14.5C77 14.5 77 16 75.9998 18.0002C75.7762 18.4472 76.9992 12.5004 72.9997 12.5002C69.0001 12.5 69.9997 6.00021 69.9997 6.00021L70.0005 1Z" fill="#FFD74C"/>
<path d="M81 1H76V18H81V1Z" fill="url(#paint4_linear_485_1569)"/>
<path d="M70 1H65V18H70V1Z" fill="url(#paint5_linear_485_1569)"/>
<defs>
<linearGradient id="paint0_linear_485_1569" x1="20.9167" y1="17.9948" x2="20.9167" y2="8.62598" gradientUnits="userSpaceOnUse">
<stop stop-color="#FFDF5D"/>
<stop offset="1" stop-color="#FFB607"/>
</linearGradient>
<linearGradient id="paint1_linear_485_1569" x1="16.4622" y1="8.13275" x2="27.9369" y2="8.2473" gradientUnits="userSpaceOnUse">
<stop stop-color="#00CFB5"/>
<stop offset="0.21" stop-color="#07D0B1"/>
<stop offset="0.53" stop-color="#1BD1A7"/>
<stop offset="0.9" stop-color="#3BD397"/>
<stop offset="1" stop-color="#45D492"/>
</linearGradient>
<linearGradient id="paint2_linear_485_1569" x1="57.0337" y1="52.4985" x2="57.0337" y2="162.759" gradientUnits="userSpaceOnUse">
<stop stop-color="#FF674C"/>
<stop offset="0.27" stop-color="#FF6E4D"/>
<stop offset="0.66" stop-color="#FF8250"/>
<stop offset="1" stop-color="#FF9953"/>
</linearGradient>
<linearGradient id="paint3_linear_485_1569" x1="53.8369" y1="94.4533" x2="53.8369" y2="1" gradientUnits="userSpaceOnUse">
<stop stop-color="#FFDF5D"/>
<stop offset="1" stop-color="#FFB607"/>
</linearGradient>
<linearGradient id="paint4_linear_485_1569" x1="78.5" y1="18" x2="78.5" y2="1" gradientUnits="userSpaceOnUse">
<stop stop-color="#53ADE1"/>
<stop offset="1" stop-color="#337EC2"/>
</linearGradient>
<linearGradient id="paint5_linear_485_1569" x1="67.5" y1="1" x2="67.5" y2="18" gradientUnits="userSpaceOnUse">
<stop stop-color="#FF684D"/>
<stop offset="1" stop-color="#FF9553"/>
</linearGradient>
</defs>
</svg>
